# Blender v2.80 (sub 41) OBJ File: ''
# www.blender.org
mtllib untitled.mtl
o Cube_Cube.001
v -0.500000 -0.125000 1.000000
v -0.499591 0.124631 0.999940
v -0.500000 -0.125000 -1.000000
v -0.499571 0.118235 -0.990330
v 0.500000 -0.125000 1.000000
v 0.499750 0.123271 0.992884
v 0.500000 -0.125000 -1.000000
v 0.498889 0.124395 -0.999872
vt 0.333333 0.666667
vt 0.000000 0.666667
vt 0.166667 0.166667
vt 0.333333 0.333333
vt 0.666667 0.000000
vt 0.666667 0.333333
vt 0.666667 0.666667
vt 0.333333 0.666667
vt 0.333333 0.333333
vt 0.000000 0.333333
vt 0.000000 0.000000
vt 0.333333 0.000000
vt 0.333333 0.333333
vt 0.666667 0.333333
vt 0.666667 0.000000
vt 1.000000 0.000000
vt 1.000000 0.333333
vn -1.0000 0.0017 -0.0000
vn -0.0048 0.0199 -0.9998
vn 1.0000 0.0027 -0.0002
vn 0.0035 0.0144 0.9999
vn 0.0000 -1.0000 0.0000
usemtl Material.003
s off
f 1/1/1 2/2/1 4/3/1 3/4/1
f 3/4/2 4/3/2 8/5/2 7/6/2
f 7/6/3 8/7/3 6/8/3 5/9/3
f 5/10/4 6/11/4 2/12/4 1/13/4
f 3/14/5 7/15/5 5/16/5 1/17/5
o Cube.001_Cube.003
v 0.498173 0.663484 -0.314820
v 0.499750 0.123271 0.992884
v 0.498889 0.124395 -0.999872
v -0.499571 0.118235 -0.990330
v -0.385486 0.566912 0.657242
v 0.594683 0.484309 -2.149381
v -0.499591 0.124631 0.999940
vt 0.291667 0.583333
vt 0.625000 0.000000
vt 0.625000 0.250000
vt 0.625000 0.500000
vt 0.625000 0.750000
vt 0.625000 1.000000
vn 1.0000 0.0019 -0.0004
vn -0.0108 0.7858 -0.6184
vn -0.4781 0.8783 -0.0028
vn 0.0040 0.9242 0.3818
usemtl None
s off
f 9/18/6 10/19/6 11/20/6
f 9/18/7 11/20/7 12/21/7
f 9/18/8 12/21/8 15/22/8
f 9/18/9 15/22/9 10/23/9
